<svg xmlns="http://www.w3.org/2000/svg" xmlns:xlink="http://www.w3.org/1999/xlink" width="721" height="627" viewBox="0 0 721 627"><defs><path id="phapa" d="M1015.41 583.63h542.576a7.284 7.284 0 0 1 7.283 7.286v11.842H1015.41z"/><path id="phapc" d="M1026.63 445.65h534.807c9.188 0 16.636 7.451 16.636 16.643v72.946H1010.03v-72.946c0-9.178 7.426-16.623 16.6-16.643z"/><path id="phape" d="M1042.07 602.76h25.548v130.71c0 2.69-2.18 4.871-4.87 4.871h-15.799a4.871 4.871 0 0 1-4.87-4.872V602.76z"/><path id="phapg" d="M1517.775 602.76h25.548v131.115a4.502 4.502 0 0 1-4.5 4.502h-16.592a4.502 4.502 0 0 1-4.501-4.502V602.76z"/><path id="phapi" d="M1444.52 583.65v-48.41h11.89v48.41z"/><path id="phapk" d="M1164.29 583.65v-48.41h11.89v48.41z"/><path id="phapm" d="M1239.474 751.89c.621-.423 14.197-5.511 38.449-1.314 24.252 4.196.486-4.197 38.8-7.35 38.313-3.151 53.347 4.162 63.492 8.376 10.146 4.215 41.951-.522 30.068 13.122-11.883 13.643-29.338 2.62-48.981 0-19.643-2.621-26.917 1.576-49.954 2.62-23.037 1.045-21.335-8.042-33.704-.17-12.37 7.87-58.776-1.352-38.17-15.284z"/><path id="phapn" d="M1309.811 357.902s1.09-38.292 26.566-38.292 31.877 12.4 34.713 31.178c2.835 18.777-4.61 29.719 0 38.968 4.609 9.249 38.944 18.11 44.768 82.05 0 0 2.7 38.455-16.79 25.343-19.49-13.112-22.316 3.737-39.672 4.17-17.357.432-62.341-15.508-72.964-10.195-10.622 5.314-12.837 4.251-19.697-2.837-6.86-7.087-1.431-51.026 10.02-62.364 11.45-11.339 28.807-38.626 31.292-50.676 2.484-12.05 1.764-17.345 1.764-17.345z"/><path id="phapo" d="M1277.452 512.85s-3.07-61.374 1.18-73.073c4.249-11.698 6.373-23.802 37.899-31.907h48.882s22.002 5.313 30.104 11.707c8.102 6.395 16.294 21.614 14.17 68.741 0 0-2.071 36.86-4.943 38.527-2.871 1.666-4.267-17.624-19.148-14.788 0 0 0-35.437-2.475-34.014 0 0-6.734 27.287-.711 45.713a182.502 182.502 0 0 0 12.099 27.71c.486.901-.567.397-1.414-.162-7.057-4.602-25.206-16.876-40.789-15.147-17.707 1.963-51.79 11.941-60.576 14.877a.846.846 0 0 1-1.017-1.216c2.538-4.647 8.525-16.732 7.4-25.711-1.414-11.347-.469-10.87-20.66-11.257z"/><path id="phapq" d="M1383.708 446.84a42.475 42.475 0 0 0-1.602 5.007 55.96 55.96 0 0 0-1.09 5.133c-.279 1.72-.504 3.459-.612 5.206a72.409 72.409 0 0 0-.144 5.223.45.45 0 1 1-.9 0c.063-1.801.153-3.54.37-5.286.215-1.747.494-3.494.845-5.224.351-1.729.802-3.43 1.315-5.115a42.58 42.58 0 0 1 1.818-4.944z"/><path id="phapr" d="M1299.151 450.197a26.865 26.865 0 0 1 5.204 7.925 23.502 23.502 0 0 1 1.476 4.557c.352 1.572.509 3.18.468 4.791a.45.45 0 1 1-.9 0 27.928 27.928 0 0 0-.387-4.61 22.774 22.774 0 0 0-1.233-4.504 27.41 27.41 0 0 0-2.026-4.214 26.117 26.117 0 0 0-2.7-3.828.081.081 0 0 1 .116-.108z"/><path id="phaps" d="M1316.54 407.866s14.746-1.855 14.638-17.759a15.416 15.416 0 0 0 11.442 1.504 77.87 77.87 0 0 1 9.317-1.801s-1.422 16.255 13.485 18.056c0 0-3.898 27.288-18.067 29.053-14.17 1.765-20.543-8.078-30.815-29.053z"/><path id="phapu" d="M1333.782 392.31c1.522.621 2.89 1.198 4.186 1.612 1.19.396 2.43.615 3.682.648.3.032.601.032.9 0a4.5 4.5 0 0 0 .9-.108c.307-.072.622-.108.901-.17.28-.064.63-.199.954-.298.342-.082.674-.2.99-.351.334-.135.676-.27 1.036-.387.715-.34 1.449-.64 2.196-.901h.063a.477.477 0 0 1 .585.648 12.799 12.799 0 0 1-1.296 2.252c-.288.333-.585.657-.9.972a5.33 5.33 0 0 1-1.026.901c-.378.252-.766.522-1.162.757-.396.234-.9.378-1.314.549-.45.18-.923.302-1.404.36a5.742 5.742 0 0 1-1.459.135 8.928 8.928 0 0 1-5.401-1.702 8.483 8.483 0 0 1-3.187-4.242.477.477 0 0 1 .64-.594z"/><path id="phapv" d="M1336.102 343.38s9.12 13.374 22.578 16.985c0 0 6.734-2.008 6.734 4.809a8.555 8.555 0 0 1-6.023 8.42s.486 7.781-7.463 16.21c0 0-10.424 16.13-23.406-2.962-5.806-8.547-5.977-12.023-5.977-12.023s-7.436 1.603-8.102-7.619c-.666-9.222 6.644-7.42 6.644-7.42s15.015-2.342 15.015-16.4z"/><path id="phapx" d="M1385.617 512.047s-27.277 11.707-34.713 13.112c-7.435 1.405 1.414 10.987 1.414 10.987h29.455s15.385-5.538 21.606-8.285a3.918 3.918 0 0 0 2.295-4.215c-.783-4.566-4.339-12.734-20.057-11.6z"/><path id="phapz" d="M1292.984 534.29s26.422.901 33.66 3.144c7.238 2.242 3.88-10.375 3.88-10.375l-22.506-11.924s-22.506-5.79-30.13-3.197c-1.423.478-4.925 10.96 15.096 22.353z"/><path id="phapB" d="M1292.99 472.801a5.391 5.391 0 0 1 5.391-5.391h85.208a5.391 5.391 0 0 1 5.391 5.391v61.488a5.391 5.391 0 0 1-5.391 5.391h-85.208a5.391 5.391 0 0 1-5.391-5.391z"/><path id="phapD" d="M1354.178 761.415s-11.298 1.504-14.548-16.21a34.964 34.964 0 0 1 0-17.715h13.504s2.394 12.671 4.501 18.246c2.107 5.574 1.45 16.57-3.457 15.679z"/><path id="phapE" d="M1344.393 727.48s-1.503 16.21 6.004 20.713c7.508 4.503 6.131-5.863 6.131-5.863l-3.412-14.832z"/><path id="phapG" d="M1284.468 683.924s-17.752 24.658-14.25 34.97c2.925 8.59 7.966 6.664 16.204-2.928 7.733-9.005 12.747-21.433 12.747-21.433s-11.514-15.4-14.7-10.609z"/><path id="phapH" d="M1294.44 688.844s-5.699 16.508-13.8 19.21c-8.103 2.701-8.94-1.126-8.94-1.126a112.584 112.584 0 0 1 12.774-23.028s3.664-1.045 9.966 4.944z"/><path id="phapJ" d="M1336.38 727.487h18.769s8.858-117.291 6.734-132.169c-2.125-14.877-15.943-55.628-15.943-55.628h-18.068l-36.135 11.374s-12.036 19.137 7.445 39.337c0 0 22.505-1.414 25.953 31.89 3.448 33.303 11.244 105.196 11.244 105.196z"/><path id="phapL" d="M1299.194 694.53s-7.292-10.33-15.844-10.663c0 0 11.955-83.59 18.329-103.088 6.373-19.498 13.395-36.428 17.437-38.356 8.345-3.971 52.933-2.773 52.933-2.773s19.95 7.817 22.434 13.508c2.485 5.692 7.436 28.35-15.232 38.977-22.668 10.627-36.126-6.025-38.25-3.9-2.125 2.126-20.202 75.469-41.807 106.295z"/><path id="phapN" d="M1336.618 343.225a5.898 5.898 0 0 1 2.556 2.548c.28.487.567.964.9 1.441.334.477.586.964.9 1.441a45.028 45.028 0 0 0 4.016 5.593c.781.862 1.61 1.68 2.484 2.45.441.377.9.783 1.324 1.152l1.386 1.08.693.541.73.495 1.458.99c.99.631 2.034 1.19 3.052 1.802a.531.531 0 0 1-.505.9c-1.08-.522-2.187-1.026-3.267-1.575l-1.594-.9-.801-.442-.774-.487a51.647 51.647 0 0 1-5.933-4.322 34.764 34.764 0 0 1-5.266-5.287 20.588 20.588 0 0 1-2.017-3.197 4.72 4.72 0 0 1-.378-3.971.657.657 0 0 1 .847-.396h.08z"/><path id="phapO" d="M1337.8 502.7a3.27 3.27 0 1 1 6.54 0 3.27 3.27 0 0 1-6.54 0z"/><path id="phapP" d="M1486.43 354.235c0-18.736 15.182-33.925 33.91-33.925 18.728 0 33.91 15.189 33.91 33.925 0 18.736-15.182 33.925-33.91 33.925-18.728 0-33.91-15.189-33.91-33.925z"/><path id="phapQ" d="M1533.563 360.735a1.621 1.621 0 0 0-.243-.901l-1.54-2.477c-.19-.38-.289-.8-.287-1.224v-7.637c0-4.974-4.03-9.006-9.003-9.006h-4.14c-4.972 0-9.003 4.032-9.003 9.006v7.637c.002.425-.097.844-.288 1.224l-1.485 2.477c-.168.27-.252.583-.243.9 0 .89.721 1.613 1.611 1.613h23.01c.89 0 1.611-.722 1.611-1.612z"/><path id="phapR" d="M1522.519 339.526l3.448-4.836h-11.037l3.448 4.836v1.387h4.14v-1.387z"/><path id="phapS" d="M1519.765 350.662l-.779-.288a.955.955 0 0 1-.606-.9c0-.498.405-.901.905-.901h.444zm2.144 2.279c.37.145.612.504.607.9 0 .498-.406.9-.906.9h-.444v-2.107zm1.991-3.008v-.442a2.323 2.323 0 0 0-2.323-2.323h-.44v-1.378h-1.378v1.378h-.441a2.323 2.323 0 0 0-.81 4.503l1.26.468v2.63h-.441a.9.9 0 0 1-.9-.9v-.442h-1.378v.441a2.323 2.323 0 0 0 2.323 2.324h2.26a2.323 2.323 0 0 0 .81-4.503l-1.26-.469v-2.63h.44a.9.9 0 0 1 .9.901v.442z"/><path id="phapT" d="M1534.244 341.6a3.358 3.358 0 0 0-2.764-2.765 3.358 3.358 0 0 0 2.764-2.765 3.358 3.358 0 0 0 2.763 2.765 3.358 3.358 0 0 0-2.763 2.765z"/><path id="phapU" d="M1503.194 355.42a3.358 3.358 0 0 0-2.764-2.765 3.358 3.358 0 0 0 2.764-2.765 3.358 3.358 0 0 0 2.763 2.765 3.358 3.358 0 0 0-2.763 2.765z"/><path id="phapV" d="M1540.158 358.787a2.07 2.07 0 0 0-2.764-.765l-9.794 4.187c-.174.073-.36.11-.55.108h-12.125a1.382 1.382 0 0 1 0-2.764h5.518a4.142 4.142 0 0 0 4.141-4.143h-11.487a6.3 6.3 0 0 0-4.897 2.35l-4.33 5.242 4.87 8.934 18.752-4.503a9.954 9.954 0 0 0 2.332-.9l9.659-4.954a2.072 2.072 0 0 0 .675-2.792z"/><path id="phapW" d="M1507.21 369.1l1.548 2.845 18.752-4.503a9.954 9.954 0 0 0 2.332-.9l5.221-2.702c-8.678 2.71-20.201 4.368-27.853 5.26z"/><path id="phapX" d="M1495.51 366.004l4.915 7.285c0 .801.65 1.45 1.45 1.45h7.517l2.07-2.071-8.282-12.428z"/><path id="phapY" d="M1505.774 377.703l3.601-2.963 2.07-2.072-1.52-2.278a48.797 48.797 0 0 1-9.525 2.837v.45c.036.567 4.79 4.026 5.374 4.026z"/><path id="phapZ" d="M1505.27 371.29c0-.762.616-1.38 1.375-1.38.76 0 1.375.618 1.375 1.38 0 .762-.616 1.38-1.375 1.38-.76 0-1.375-.618-1.375-1.38z"/><path id="phapaa" d="M1218.174 209.037l6.302-23.27a2.872 2.872 0 0 1 2.755-2.117l39.87 1.927a2.871 2.871 0 0 1 2.791 3.603l-6.427 22.415a2.872 2.872 0 0 1-2.845 2.107l-39.772-1.027a2.871 2.871 0 0 1-2.674-3.638z"/><path id="phapab" d="M1255.758 202.715l-21.686 1.63a1.09 1.09 0 0 1-1.17-1l-.919-11.94a1.09 1.09 0 0 1 1-1.172l21.686-1.63a1.09 1.09 0 0 1 1.17 1l.9 11.933a1.09 1.09 0 0 1-.98 1.18z"/><path id="phapac" d="M1252.681 198.609a3.6 3.6 0 0 0-2.917 1.8 4.05 4.05 0 0 0-1.881-.35 3.809 3.809 0 0 0-3.493 3.539l11.334-.856a1.107 1.107 0 0 0 1.017-1 3.871 3.871 0 0 0-4.06-3.133z"/><path id="phapad" d="M1253.506 201.785l-17.347 1.323a2.179 2.179 0 0 0-2.332-2.008l-.567-7.592a2.18 2.18 0 0 0 2.008-2.332l17.347-1.306a2.179 2.179 0 0 0 2.331 2.008l.568 7.592a2.18 2.18 0 0 0-2.008 2.315z"/><path id="phapae" d="M1239.71 196.63c0-2.712 1.952-4.91 4.36-4.91 2.408 0 4.36 2.198 4.36 4.91s-1.952 4.91-4.36 4.91c-2.408 0-4.36-2.198-4.36-4.91z"/><path id="phapaf" d="M1236.8 196.95a1.09 1.09 0 1 1 2.18 0 1.09 1.09 0 0 1-2.18 0z"/><path id="phapag" d="M1249.81 195.97a1.09 1.09 0 1 1 2.18 0 1.09 1.09 0 0 1-2.18 0z"/><path id="phapah" d="M1244.881 195.908l-1.08.08a.542.542 0 0 1-.081-1.08l1.63-.126a.542.542 0 0 0-.082-1.08h-.54a.542.542 0 1 0-1.08.08 1.63 1.63 0 0 0 .243 3.251l1.08-.08a.542.542 0 0 1 .081 1.08l-1.63.126a.542.542 0 0 0 .082 1.08h.54a.542.542 0 1 0 1.08-.08 1.63 1.63 0 0 0-.243-3.251z"/><path id="phapai" d="M1243.32 203.88a3.81 3.81 0 1 1 7.62 0 3.81 3.81 0 0 1-7.62 0z"/><path id="phapaj" d="M1247.323 206.624a2.702 2.702 0 1 1 2.513-2.918 2.701 2.701 0 0 1-2.549 2.909zm-.486-6.512a3.808 3.808 0 0 0-2.203 6.686 3.807 3.807 0 0 0 6.281-3.173 3.783 3.783 0 0 0-4.078-3.513z"/><path id="phapak" d="M1247.397 207.616a3.735 3.735 0 0 0 3.51-4.026h-.026a.576.576 0 0 0-.504.531 3.288 3.288 0 0 1-.9 2.027c-.435.46-1.001.774-1.621.9a.486.486 0 0 0-.46.568z"/><path id="phapal" d="M1246.842 200.17a3.735 3.735 0 0 0-3.51 4.026h.054a.576.576 0 0 0 .504-.532c.056-.76.374-1.475.9-2.026.435-.46 1-.774 1.62-.9a.486.486 0 0 0 .432-.568z"/><path id="phapam" d="M1244.818 204.462a2.702 2.702 0 0 1 2.511-2.918 2.565 2.565 0 0 1 1.8.522 2.7 2.7 0 0 0-4.698 2.045c.051.802.47 1.537 1.134 1.99a2.55 2.55 0 0 1-.747-1.64z"/><path id="phapan" d="M1248.872 205.466a.198.198 0 0 1-.171 0 .261.261 0 0 1 0-.378c.294-.362.436-.823.396-1.288a.27.27 0 1 1 .54 0 2.514 2.514 0 0 1-.477 1.675.594.594 0 0 1-.288-.009z"/><path id="phapao" d="M1247.279 205.537a.513.513 0 0 1-.585-.504l-.162-2.17a.542.542 0 1 1 1.08-.082l.162 2.17a.513.513 0 0 1-.495.586z"/><path id="phapap" d="M1249.534 202.69c.155.32.255.664.297 1.018a2.702 2.702 0 0 1-2.512 2.918 1.845 1.845 0 0 1-.549 0v.054c.028.367.11.728.243 1.071h.378a3.79 3.79 0 0 0 3.268-5.151h-.378a3.6 3.6 0 0 0-.747.09z"/><path id="phapaq" d="M1243.88 208.14a3.81 3.81 0 1 1 7.62 0 3.81 3.81 0 0 1-7.62 0z"/><path id="phapar" d="M1247.883 210.874a2.702 2.702 0 1 1-.36-5.392 2.702 2.702 0 0 1 .36 5.392zm-.486-6.512a3.808 3.808 0 0 0-2.203 6.686 3.807 3.807 0 0 0 6.281-3.173 3.783 3.783 0 0 0-4.078-3.513z"/><path id="phapas" d="M1247.957 211.906a3.735 3.735 0 0 0 3.511-4.026h-.054a.576.576 0 0 0-.504.531 3.288 3.288 0 0 1-.9 2.027c-.435.46-1 .774-1.62.9a.486.486 0 0 0-.433.568z"/><path id="phapat" d="M1247.392 204.41a3.735 3.735 0 0 0-3.51 4.026h.054a.576.576 0 0 0 .504-.532c.056-.76.374-1.475.9-2.026.435-.46 1-.774 1.62-.9a.486.486 0 0 0 .432-.568z"/><path id="phapau" d="M1245.368 208.722a2.702 2.702 0 0 1 2.511-2.918 2.565 2.565 0 0 1 1.8.522 2.7 2.7 0 0 0-4.698 2.045c.051.802.47 1.537 1.134 1.99a2.55 2.55 0 0 1-.747-1.64z"/><path id="phapav" d="M1249.382 209.716a.198.198 0 0 1-.171 0 .261.261 0 0 1 0-.378c.294-.362.436-.823.396-1.288a.27.27 0 1 1 .54 0 2.514 2.514 0 0 1-.477 1.675.594.594 0 0 1-.288-.009z"/><path id="phapaw" d="M1247.799 209.787a.513.513 0 0 1-.585-.504l-.162-2.17a.542.542 0 0 1 1.08-.082l.162 2.17a.513.513 0 0 1-.495.586z"/><path id="phapax" d="M1247.48 205.74a3.81 3.81 0 1 1 7.62 0 3.81 3.81 0 0 1-7.62 0z"/><path id="phapay" d="M1251.483 208.462a2.702 2.702 0 1 1-.361-5.39 2.702 2.702 0 0 1 .361 5.39zm-.486-6.51a3.808 3.808 0 0 0-2.203 6.686 3.807 3.807 0 0 0 6.281-3.173 3.783 3.783 0 0 0-4.078-3.513z"/><path id="phapaz" d="M1251.557 209.506a3.735 3.735 0 0 0 3.511-4.026h-.054a.576.576 0 0 0-.504.531 3.288 3.288 0 0 1-.9 2.027c-.435.46-1 .774-1.62.9a.486.486 0 0 0-.433.568z"/><path id="phapaA" d="M1250.993 202.01a3.735 3.735 0 0 0-3.511 4.026h.054a.576.576 0 0 0 .504-.532c.056-.76.374-1.475.9-2.026.435-.46 1-.774 1.62-.9a.486.486 0 0 0 .433-.568z"/><path id="phapaB" d="M1248.968 206.312a2.702 2.702 0 0 1 2.511-2.918 2.565 2.565 0 0 1 1.8.522 2.7 2.7 0 0 0-4.698 2.045c.051.802.47 1.537 1.134 1.99a2.55 2.55 0 0 1-.747-1.64z"/><path id="phapaC" d="M1252.982 207.316a.198.198 0 0 1-.171 0 .261.261 0 0 1 0-.378c.294-.362.436-.823.396-1.288a.27.27 0 1 1 .54 0 2.514 2.514 0 0 1-.477 1.675.594.594 0 0 1-.288-.009z"/><path id="phapaD" d="M1251.399 207.387a.513.513 0 0 1-.585-.504l-.162-2.17a.542.542 0 0 1 1.08-.082l.162 2.17a.513.513 0 0 1-.495.586z"/><path id="phapaE" d="M1162 319.845c0-15.378 12.467-27.845 27.845-27.845 15.378 0 27.845 12.467 27.845 27.845 0 15.378-12.467 27.845-27.845 27.845-15.378 0-27.845-12.467-27.845-27.845z"/><path id="phapaF" d="M1203 305.215c0-.574-.457-1.025-1.038-1.025h-24.924c-.581 0-1.038.451-1.038 1.025v30.762c0 .574.457 1.026 1.038 1.026h24.924c.581 0 1.038-.452 1.038-1.026z"/><path id="phapaH" d="M1178.08 306.24h22.846v28.71h-22.846z"/><path id="phapaI" d="M1198.842 311.295c0 .575-.456 1.026-1.038 1.026h-16.616a1.022 1.022 0 0 1-1.038-1.026c0-.574.457-1.025 1.038-1.025h16.616c.582 0 1.038.451 1.038 1.025z"/><path id="phapaJ" d="M1198.842 315.395c0 .575-.456 1.026-1.038 1.026h-16.616a1.022 1.022 0 0 1-1.038-1.026c0-.574.457-1.025 1.038-1.025h16.616c.582 0 1.038.451 1.038 1.025z"/><path id="phapaK" d="M1198.845 319.495c0 .567-.465 1.026-1.039 1.026h-8.308a1.032 1.032 0 0 1-1.038-1.026c0-.566.465-1.025 1.038-1.025h8.308c.574 0 1.039.459 1.039 1.025z"/><path id="phapaL" d="M1197.806 324.63h-8.308a1.032 1.032 0 0 1-1.038-1.025c0-.566.465-1.025 1.038-1.025h8.308c.574 0 1.039.459 1.039 1.025 0 .567-.465 1.026-1.039 1.026z"/><path id="phapaM" d="M1197.806 328.73h-8.308a1.032 1.032 0 0 1-1.038-1.025c0-.566.465-1.025 1.038-1.025h8.308c.574 0 1.039.459 1.039 1.025 0 .567-.465 1.026-1.039 1.026z"/><path id="phapaN" d="M1197.806 332.83h-8.308a1.032 1.032 0 0 1-1.038-1.025c0-.566.465-1.025 1.038-1.025h8.308c.574 0 1.039.459 1.039 1.025 0 .567-.465 1.026-1.039 1.026z"/><path id="phapaP" d="M1186.38 327.707c0-1.696-1.397-3.076-3.115-3.076-.573 0-1.038-.46-1.038-1.025 0-.566.465-1.026 1.038-1.026.37 0 .715.197.9.514.286.49.92.656 1.42.374.496-.284.666-.91.378-1.401-.374-.64-.974-1.095-1.66-1.337v-1.185c0-.566-.464-1.025-1.038-1.025-.573 0-1.038.459-1.038 1.025v1.174c-1.206.424-2.077 1.552-2.077 2.887 0 1.696 1.398 3.076 3.115 3.076.573 0 1.039.46 1.039 1.025 0 .566-.466 1.026-1.039 1.026-.37 0-.715-.196-.9-.514a1.041 1.041 0 0 0-1.419-.373c-.496.283-.666.91-.378 1.4.374.64.974 1.095 1.659 1.337v1.144c0 .567.465 1.025 1.038 1.025.574 0 1.039-.458 1.039-1.025v-1.132c1.206-.425 2.077-1.552 2.077-2.888z"/><path id="phapaQ" d="M1478.97 244.604l44.39-.774c1.855 0 3.467-1.738 3.97-4.206l7.293-35.456c.783-3.791-1.324-7.591-4.177-7.537l-44.39.774c-1.855 0-3.466 1.738-3.97 4.206l-7.292 35.455c-.784 3.783 1.35 7.583 4.177 7.538z"/><path id="phapaR" d="M1494.57 229.85h8.903v2.413h-8.903z"/><path id="phapaS" d="M1494.57 225.01h8.903v2.414h-8.903z"/><path id="phapaT" d="M1494.57 222.6h8.903v2.414h-8.903z"/><path id="phapaU" d="M1494.57 227.42h8.903v2.432h-8.903z"/><path id="phapaV" d="M1505.53 229.85h8.903v2.413h-8.903z"/><path id="phapaW" d="M1505.53 225.01h8.903v2.414h-8.903z"/><path id="phapaX" d="M1505.53 222.6h8.903v2.414h-8.903z"/><path id="phapaY" d="M1505.53 227.42h8.903v2.432h-8.903z"/><path id="phapaZ" d="M1505.53 220.18h8.903v2.413h-8.903z"/><path id="phapba" d="M1505.53 215.35h8.903v2.414h-8.903z"/><path id="phapbb" d="M1505.53 212.93h8.903v2.413h-8.903z"/><path id="phapbc" d="M1505.53 217.77h8.903v2.414h-8.903z"/><path id="phapbd" d="M1517.548 228.453l-2.026 2.027 1.927 1.927H1493.386v-24.082l1.926 1.928 2.026-2.027-5.375-5.376-5.383 5.394 2.017 2.027 1.926-1.928v26.928h26.944l-1.927 1.927 2.026 2.026 5.365-5.376-5.383-5.395z"/><path id="phapbf" d="M1332.873 173.69c-.227-15.616 12.242-28.459 27.851-28.687 15.61-.228 28.448 12.245 28.677 27.86.23 15.615-12.238 28.46-27.847 28.69-3.105.045-9.398-.27-14.88-3.98a28.262 28.262 0 0 1-13.8-23.884z"/><path id="phapbg" d="M1362.597 172.895c1.918-1.918 5.069-3.34 6.932-2.782.558 1.855-.801 5.016-2.782 6.934a5.4 5.4 0 0 1-5.752 1.549 5.513 5.513 0 0 1 1.602-5.7z"/><path id="phapbh" d="M1359.498 172.895c-1.918-1.918-5.068-3.34-6.932-2.782-.558 1.855.801 5.016 2.782 6.934a5.4 5.4 0 0 0 5.752 1.549 5.513 5.513 0 0 0-1.602-5.7z"/><path id="phapbi" d="M1360.44 180.44V169.3h1.23v11.14z"/><path id="phapbj" d="M1352.452 179.833a5.74 5.74 0 0 0-.063 1.234c0 5.691 3.898 10.212 8.66 10.212 4.763 0 8.66-4.503 8.66-10.212 0-.495-.062-1.297-.062-1.297h-17.195z"/><path id="phapbl" d="M1351.78 180.45v-2.48h18.56v2.48z"/><path id="phapbn" d="M1355.48 192.21v-2.48h11.14v2.48z"/><path id="phapbp" d="M1352.95 162.065c0-4.476 3.626-8.105 8.1-8.105s8.1 3.629 8.1 8.105c0 4.476-3.626 8.105-8.1 8.105s-8.1-3.629-8.1-8.105z"/><path id="phapbq" d="M1360.72 166.575v-1.118a4.683 4.683 0 0 1-1.98-.443l.308-1.165a4.068 4.068 0 0 0 1.806.443c.64 0 1.057-.239 1.057-.64 0-.403-.352-.641-1.191-.88-1.192-.361-1.922-.88-1.922-1.841s.64-1.602 1.922-1.8v-.961h.877v.88a4.292 4.292 0 0 1 1.673.32l-.308 1.118a3.808 3.808 0 0 0-1.582-.36c-.705 0-.968.279-.968.582 0 .303.397.582 1.32.88 1.32.442 1.807.96 1.807 1.88-.024 1-.884 1.816-1.98 1.882v1.2h-.84z"/><path id="phapbr" d="M918 738c0-6.075 15.67-11 35-11s35 4.925 35 11-15.67 11-35 11-35-4.925-35-11z"/><path id="phapbs" d="M948.387 671.832a24.642 24.642 0 0 1-4.553 13.273l.538.36.57.374c9.502-13.273 2.549-29.997-.975-36.696a14.519 14.519 0 0 1-.975-2.342c-1.933-6.004-4.529-15.006-4.069-18.739.717-5.855 1.403-21.213-13.253-37.258-14.656-16.044-37.723-45.573-66.2-45.534-5.263 0 24.571 41.615 30.816 53.662 6.244 12.047 17.244 28.842 28.205 36.087L935 645.95c8.615 5.779 13.947 15.554 13.386 25.883z"/><path id="phapbt" d="M957.417 628.343c-3.353 8.776-7.968 26.976-6.237 58.206l-1.621-.047c-1.217-21.861.6-37.312 2.985-47.72a44.687 44.687 0 0 0-.148-20.495c-1.489-6.184-2.915-13.507-2.915-18.895 0-11.313 6.454-24.242 11.296-29.091 4.84-4.849 8.068-12.93 11.296-27.475 3.227-14.546 16.137-19.394 24.205-24.243 8.069-4.848 17.751-11.313 19.365-17.778 1.614-6.465 22.857-23.72 30.66-8.08 3.228 6.464-30.66 40.404-33.888 45.284-2.751 4.138-42.096 68.645-53.556 87.445a17.969 17.969 0 0 0-1.442 2.89z"/><path id="phapbu" d="M969.311 735.863h-33.217l-7.874-57.433h48.965l-7.874 57.433z"/><linearGradient id="phapb" x1="1294.91" x2="1294.91" y1="567.09" y2="614.54" gradientUnits="userSpaceOnUse"><stop offset="0" stop-color="#d3dfff"/><stop offset="1" stop-color="#627ab8"/></linearGradient><linearGradient id="phapd" x1="1298.77" x2="1298.77" y1="368.19" y2="590.43" gradientUnits="userSpaceOnUse"><stop offset="0" stop-color="#d3dfff"/><stop offset="1" stop-color="#627ab8"/></linearGradient><linearGradient id="phapf" x1="1055.06" x2="1055.06" y1="485.54" y2="821.86" gradientUnits="userSpaceOnUse"><stop offset="0" stop-color="#d3dfff"/><stop offset="1" stop-color="#627ab8"/></linearGradient><linearGradient id="phaph" x1="1530.74" x2="1530.74" y1="485.5" y2="821.92" gradientUnits="userSpaceOnUse"><stop offset="0" stop-color="#d3dfff"/><stop offset="1" stop-color="#627ab8"/></linearGradient><linearGradient id="phapj" x1="1450.56" x2="1450.56" y1="493.39" y2="613.45" gradientUnits="userSpaceOnUse"><stop offset="0" stop-color="#d3dfff"/><stop offset="1" stop-color="#627ab8"/></linearGradient><linearGradient id="phapl" x1="1170.33" x2="1170.33" y1="493.39" y2="613.45" gradientUnits="userSpaceOnUse"><stop offset="0" stop-color="#d3dfff"/><stop offset="1" stop-color="#627ab8"/></linearGradient><linearGradient id="phapp" x1="1303.7" x2="1410.03" y1="423.65" y2="602.92" gradientUnits="userSpaceOnUse"><stop offset="0" stop-color="#009dec"/><stop offset="1" stop-color="#2b63ef"/></linearGradient><linearGradient id="phapt" x1="1252.67" x2="1441.96" y1="300.08" y2="590.75" gradientUnits="userSpaceOnUse"><stop offset="0" stop-color="#ffbeac"/><stop offset="1" stop-color="#ffe9e2"/></linearGradient><linearGradient id="phapw" x1="1247.73" x2="1445.31" y1="243.26" y2="567.6" gradientUnits="userSpaceOnUse"><stop offset="0" stop-color="#ffbeac"/><stop offset="1" stop-color="#ffe9e2"/></linearGradient><linearGradient id="phapy" x1="1272.41" x2="1496.23" y1="466.02" y2="614.77" gradientUnits="userSpaceOnUse"><stop offset="0" stop-color="#ffbeac"/><stop offset="1" stop-color="#ffe9e2"/></linearGradient><linearGradient id="phapA" x1="1205.4" x2="1416.76" y1="461.14" y2="623.53" gradientUnits="userSpaceOnUse"><stop offset="0" stop-color="#ffbeac"/><stop offset="1" stop-color="#ffe9e2"/></linearGradient><radialGradient id="phapC" cx="1340.98" cy="503.55" r="69.75" gradientUnits="userSpaceOnUse"><stop offset="0" stop-color="#cac7ff"/><stop offset="1" stop-color="#fffff1"/></radialGradient><linearGradient id="phapF" x1="1328.13" x2="1375.96" y1="686.04" y2="820.28" gradientUnits="userSpaceOnUse"><stop offset="0" stop-color="#ffbeac"/><stop offset="1" stop-color="#ffe9e2"/></linearGradient><linearGradient id="phapI" x1="1241.99" x2="1330.05" y1="636.05" y2="790.82" gradientUnits="userSpaceOnUse"><stop offset="0" stop-color="#ffbeac"/><stop offset="1" stop-color="#ffe9e2"/></linearGradient><linearGradient id="phapK" x1="1245.95" x2="1314.18" y1="349.7" y2="723.51" gradientUnits="userSpaceOnUse"><stop offset="0" stop-color="#190e2d"/><stop offset="1" stop-color="#27153f"/></linearGradient><linearGradient id="phapM" x1="1354.99" x2="1323.3" y1="488.53" y2="691.25" gradientUnits="userSpaceOnUse"><stop offset="0" stop-color="#2f1a56"/><stop offset="1" stop-color="#27153f"/></linearGradient><linearGradient id="phapaG" x1="1189.5" x2="1189.5" y1="304.19" y2="337" gradientUnits="userSpaceOnUse"><stop offset="0" stop-color="#f1f0fd"/><stop offset="1" stop-color="#dedcfa"/></linearGradient><linearGradient id="phapaO" x1="1190.58" x2="1198.85" y1="331" y2="333.56" gradientUnits="userSpaceOnUse"><stop offset="0" stop-color="#009dec"/><stop offset="1" stop-color="#2b63ef"/></linearGradient><linearGradient id="phapbe" x1="1494.01" x2="1522.93" y1="206.83" y2="252.08" gradientUnits="userSpaceOnUse"><stop offset="0" stop-color="#009dec"/><stop offset="1" stop-color="#2b63ef"/></linearGradient><linearGradient id="phapbk" x1="1355.92" x2="1369.71" y1="181.03" y2="195.35" gradientUnits="userSpaceOnUse"><stop offset="0" stop-color="#009dec"/><stop offset="1" stop-color="#2b63ef"/></linearGradient><linearGradient id="phapbm" x1="1361.21" x2="1361.21" y1="175.83" y2="181.96" gradientUnits="userSpaceOnUse"><stop offset="0" stop-color="#d3dfff"/><stop offset="1" stop-color="#516599"/></linearGradient><linearGradient id="phapbo" x1="1361.14" x2="1361.14" y1="187.59" y2="193.72" gradientUnits="userSpaceOnUse"><stop offset="0" stop-color="#d3dfff"/><stop offset="1" stop-color="#516599"/></linearGradient></defs><g><g transform="translate(-858 -145)"><g><use fill="url(#phapb)" xlink:href="#phapa"/></g><g><use fill="url(#phapd)" xlink:href="#phapc"/></g><g><use fill="url(#phapf)" xlink:href="#phape"/></g><g><use fill="url(#phaph)" xlink:href="#phapg"/></g><g><use fill="url(#phapj)" xlink:href="#phapi"/></g><g><use fill="url(#phapl)" xlink:href="#phapk"/></g><g><use fill="#d9dee8" xlink:href="#phapm"/></g><g><use fill="#2b2b2b" xlink:href="#phapn"/></g><g><use fill="url(#phapp)" xlink:href="#phapo"/></g><g opacity=".2"><use xlink:href="#phapq"/></g><g opacity=".2"><use xlink:href="#phapr"/></g><g><use fill="url(#phapt)" xlink:href="#phaps"/></g><g><use fill="#efa597" xlink:href="#phapu"/></g><g><use fill="url(#phapw)" xlink:href="#phapv"/></g><g><use fill="url(#phapy)" xlink:href="#phapx"/></g><g><use fill="url(#phapA)" xlink:href="#phapz"/></g><g><use fill="url(#phapC)" xlink:href="#phapB"/></g><g><use fill="#44537a" xlink:href="#phapD"/></g><g><use fill="url(#phapF)" xlink:href="#phapE"/></g><g><use fill="#44537a" xlink:href="#phapG"/></g><g><use fill="url(#phapI)" xlink:href="#phapH"/></g><g><use fill="url(#phapK)" xlink:href="#phapJ"/></g><g><use fill="url(#phapM)" xlink:href="#phapL"/></g><g><use fill="#2b2b2a" xlink:href="#phapN"/></g><g><use fill="#fff" xlink:href="#phapO"/></g><g><g><use fill="#fff" xlink:href="#phapP"/></g><g><use fill="#00c67a" xlink:href="#phapQ"/></g><g><use fill="#00c67a" xlink:href="#phapR"/></g><g><use fill="#fff" xlink:href="#phapS"/></g><g><use fill="#fdb62f" xlink:href="#phapT"/></g><g><use fill="#fdb62f" xlink:href="#phapU"/></g><g><use fill="#fec9a3" xlink:href="#phapV"/></g><g><use fill="#f7bb8f" xlink:href="#phapW"/></g><g><use fill="#4398d1" xlink:href="#phapX"/></g><g><use fill="#3e8cc7" xlink:href="#phapY"/></g><g><use fill="#d9d9d9" xlink:href="#phapZ"/></g></g><g><g><use fill="#fff" xlink:href="#phapaa"/></g><g><g><use fill="#fff" xlink:href="#phapab"/></g><g><use fill="#fff" xlink:href="#phapac"/></g><g><use fill="#0dc281" xlink:href="#phapad"/></g><g transform="rotate(-4.004 1244 196.5)"><use fill="#fff" xlink:href="#phapae"/></g><g transform="rotate(-4.3 1237.5 196.5)"><use fill="#fff" xlink:href="#phapaf"/></g><g transform="rotate(-4.3 1250.5 195.5)"><use fill="#fff" xlink:href="#phapag"/></g><g><use fill="#0dc281" xlink:href="#phapah"/></g></g><g><g><g transform="rotate(-4.3 1247 204)"><use fill="#ffca5d" xlink:href="#phapai"/></g><g transform="rotate(-4.3 1247 204)"><use fill="#f6b545" xlink:href="#phapai"/></g><g><use fill="#ffcb5b" xlink:href="#phapaj"/></g><g><use fill="#f6b545" xlink:href="#phapak"/></g><g><use fill="#ffe27a" xlink:href="#phapal"/></g><g><use fill="#f19920" xlink:href="#phapam"/></g><g><use fill="#ffcb5b" xlink:href="#phapan"/></g><g><use fill="#f19920" xlink:href="#phapao"/></g><g><use fill="#f6b545" xlink:href="#phapap"/></g></g><g><g transform="rotate(-4.3 1247.5 208)"><use fill="#f6b545" xlink:href="#phapaq"/></g><g><use fill="#ffcb5b" xlink:href="#phapar"/></g><g><use fill="#f6b545" xlink:href="#phapas"/></g><g><use fill="#ffe27a" xlink:href="#phapat"/></g><g><use fill="#f19920" xlink:href="#phapau"/></g><g><use fill="#ffcb5b" xlink:href="#phapav"/></g><g><use fill="#f19920" xlink:href="#phapaw"/></g></g><g><g transform="rotate(-4.3 1251.5 205.5)"><use fill="#f6b545" xlink:href="#phapax"/></g><g><use fill="#ffcb5b" xlink:href="#phapay"/></g><g><use fill="#f6b545" xlink:href="#phapaz"/></g><g><use fill="#ffe27a" xlink:href="#phapaA"/></g><g><use fill="#f19920" xlink:href="#phapaB"/></g><g><use fill="#ffcb5b" xlink:href="#phapaC"/></g><g><use fill="#f19920" xlink:href="#phapaD"/></g></g></g></g><g><g><use fill="#fff" xlink:href="#phapaE"/></g><g><g><use fill="url(#phapaG)" xlink:href="#phapaF"/></g><g opacity=".06"><use xlink:href="#phapaH"/></g><g><use fill="#fff" xlink:href="#phapaI"/></g><g><use fill="#fff" xlink:href="#phapaJ"/></g><g><g><use fill="#fff" xlink:href="#phapaK"/></g><g><use fill="#fff" xlink:href="#phapaL"/></g><g><use fill="#fff" xlink:href="#phapaM"/></g><g><use fill="url(#phapaO)" xlink:href="#phapaN"/></g></g><g><use fill="#0dc281" xlink:href="#phapaP"/></g></g></g><g><g><use fill="#fff" xlink:href="#phapaQ"/></g><g><use fill="#ffd400" xlink:href="#phapaR"/></g><g><use fill="#ffd400" xlink:href="#phapaS"/></g><g><use fill="#ffa300" xlink:href="#phapaT"/></g><g><use fill="#ffa300" xlink:href="#phapaU"/></g><g><use fill="#fdba12" xlink:href="#phapaV"/></g><g><use fill="#fdba12" xlink:href="#phapaW"/></g><g><use fill="#ef9506" xlink:href="#phapaX"/></g><g><use fill="#ef9506" xlink:href="#phapaY"/></g><g><use fill="#fdba12" xlink:href="#phapaZ"/></g><g><use fill="#fdba12" xlink:href="#phapba"/></g><g><use fill="#ef9506" xlink:href="#phapbb"/></g><g><use fill="#ef9506" xlink:href="#phapbc"/></g><g><use fill="url(#phapbe)" xlink:href="#phapbd"/></g></g><g><g><use fill="#fff" xlink:href="#phapbf"/></g><g><use fill="#0dc281" xlink:href="#phapbg"/></g><g><use fill="#0dc281" xlink:href="#phapbh"/></g><g><use fill="#afbfea" xlink:href="#phapbi"/></g><g><use fill="url(#phapbk)" xlink:href="#phapbj"/></g><g><use fill="url(#phapbm)" xlink:href="#phapbl"/></g><g><use fill="url(#phapbo)" xlink:href="#phapbn"/></g><g><use fill="#0dc281" xlink:href="#phapbp"/></g><g><use fill="#fff6e1" xlink:href="#phapbq"/></g></g><g><use fill="#d8d8d8" xlink:href="#phapbr"/></g><g><g><use fill="#0dc281" xlink:href="#phapbs"/></g><g><use fill="#0dc281" xlink:href="#phapbt"/></g><g><use fill="#5d6783" xlink:href="#phapbu"/></g></g><g><g/><g/><g/><g/><g/></g></g></g></svg>